<?xml version="1.0" standalone="no"?>
<!DOCTYPE svg PUBLIC "-//W3C//DTD SVG 20010904//EN"
 "http://www.w3.org/TR/2001/REC-SVG-20010904/DTD/svg10.dtd">
<svg version="1.0" xmlns="http://www.w3.org/2000/svg"
 width="700.000000pt" height="700.000000pt" viewBox="0 0 700.000000 700.000000"
 preserveAspectRatio="xMidYMid meet">
<metadata>
Created by potrace 1.11, written by Peter Selinger 2001-2013
</metadata>
<g transform="translate(0.000000,700.000000) scale(0.100000,-0.100000)"
fill="#000000" stroke="none">
<path d="M4363 6984 c-21 -8 -40 -14 -43 -14 -8 0 -1910 -1904 -1910 -1912 0
-5 596 -604 1324 -1332 l1324 -1324 950 952 c522 523 958 967 967 985 23 46
27 133 7 189 -12 37 -52 83 -223 254 -226 226 -256 247 -347 248 -72 0 -97
-12 -294 -146 -95 -65 -243 -165 -328 -222 -85 -58 -177 -121 -205 -141 -27
-20 -45 -29 -40 -21 5 8 121 183 258 389 139 207 255 392 262 415 16 55 10
116 -15 167 -33 64 -821 848 -883 878 -70 34 -147 26 -246 -23 -40 -21 -75
-36 -77 -33 -2 2 7 26 20 54 61 125 69 205 30 283 -10 19 -87 104 -171 187
-138 137 -159 154 -206 167 -61 18 -101 18 -154 0z"/>
<path d="M1763 4417 c-306 -308 -314 -318 -318 -412 -4 -95 6 -108 330 -435
313 -316 334 -342 368 -458 34 -113 7 -275 -61 -374 -55 -80 -74 -95 -442
-332 -91 -58 -172 -111 -180 -116 -8 -6 -62 -40 -120 -77 -217 -139 -799 -532
-910 -615 -151 -112 -181 -139 -239 -212 -125 -157 -182 -314 -185 -506 -1
-144 5 -195 39 -295 65 -195 198 -361 373 -465 64 -37 174 -84 224 -94 13 -3
34 -8 48 -11 52 -13 249 -13 320 1 203 38 386 150 508 309 26 33 50 65 54 70
84 105 395 566 653 965 98 151 203 313 234 360 31 47 58 90 61 95 3 6 30 48
61 95 118 181 265 262 449 247 162 -14 186 -31 540 -382 280 -279 309 -304
356 -318 61 -18 124 -14 179 13 25 12 147 126 322 302 l282 283 -1327 1327
-1328 1328 -291 -293z m-769 -3246 c76 -33 132 -86 168 -158 27 -56 32 -75 32
-146 1 -69 -4 -91 -26 -137 -81 -172 -273 -241 -443 -161 -77 37 -121 81 -157
158 -86 183 10 398 205 458 58 18 164 12 221 -14z"/>
</g>
</svg>
